<svg width="27" height="27" viewBox="0 0 27 27" fill="none" xmlns="http://www.w3.org/2000/svg">
    <circle cx="13.5" cy="13.5" r="13.5" fill="#F5F5F5"/>
    <g clip-path="url(#sm0jsetuea)">
        <path d="M15.632 14.819v-2.254a.418.418 0 0 0-.417-.418h-.042V8.975c0-.793-.876-1.67-1.503-2.087-.375-.209-.668-.293-.876-.167-.668.334-1.002 1.419-1.002 2.212v3.214h-.042a.418.418 0 0 0-.417.418v2.254c-.126.083-.209.209-.209.334v4.467c0 .25.209.417.417.417h3.883c.25 0 .417-.209.417-.417v-4.425a.439.439 0 0 0-.209-.376zm-.835-1.795v1.753h-2.671v-1.753h2.671zm.167 6.178h-3.047v-3.59h3.047v3.59z" fill="#000"/>
        <path d="M15.006 15.612H11.96v3.59h3.047v-3.59zm-.793-6.053c-.459-.041-.835-.208-1.085-.5-.543-.627-.501-1.67-.501-1.712 0-.167.167-.292.334-.25.167 0 .25.166.25.292 0 0-.041.835.334 1.294a.908.908 0 0 0 .668.292c.167 0 .292.125.292.292a.285.285 0 0 1-.292.292zm.585 3.465h-2.672v1.753h2.63l.042-1.753z" fill="#fff"/>
    </g>
    <defs>
        <clipPath id="sm0jsetuea">
            <path fill="#fff" transform="translate(6.783 6.679)" d="M0 0h13.358v13.358H0z"/>
        </clipPath>
    </defs>
</svg>
